<mxfile host="app.diagrams.net" modified="2023-11-12T14:38:36.724Z" agent="Mozilla/5.0 (X11; Ubuntu; Linux x86_64; rv:109.0) Gecko/20100101 Firefox/119.0" etag="GNwSHPXG4vQ2mlJX8n4n" version="22.1.0" type="device">
  <diagram name="PÃ¡gina-1" id="meAH161xmTfFD7l7MOQV">
    <mxGraphModel dx="954" dy="586" grid="1" gridSize="10" guides="1" tooltips="1" connect="1" arrows="1" fold="1" page="1" pageScale="1" pageWidth="827" pageHeight="1169" math="0" shadow="0">
      <root>
        <mxCell id="0" />
        <mxCell id="1" parent="0" />
        <mxCell id="j11c0CV930gJWpKAAKMR-14" value=":studentModel" style="shape=umlLifeline;perimeter=lifelinePerimeter;whiteSpace=wrap;html=1;container=1;dropTarget=0;collapsible=0;recursiveResize=0;outlineConnect=0;portConstraint=eastwest;newEdgeStyle={&quot;curved&quot;:0,&quot;rounded&quot;:0};" vertex="1" parent="1">
          <mxGeometry x="160" y="50" width="100" height="370" as="geometry" />
        </mxCell>
        <mxCell id="j11c0CV930gJWpKAAKMR-15" value="" style="html=1;points=[[0,0,0,0,5],[0,1,0,0,-5],[1,0,0,0,5],[1,1,0,0,-5]];perimeter=orthogonalPerimeter;outlineConnect=0;targetShapes=umlLifeline;portConstraint=eastwest;newEdgeStyle={&quot;curved&quot;:0,&quot;rounded&quot;:0};" vertex="1" parent="j11c0CV930gJWpKAAKMR-14">
          <mxGeometry x="56" y="120" width="10" height="40" as="geometry" />
        </mxCell>
        <mxCell id="j11c0CV930gJWpKAAKMR-16" value="getBenefitById()" style="html=1;align=left;spacingLeft=2;endArrow=block;rounded=0;edgeStyle=orthogonalEdgeStyle;curved=0;rounded=0;" edge="1" parent="j11c0CV930gJWpKAAKMR-14" source="j11c0CV930gJWpKAAKMR-14">
          <mxGeometry relative="1" as="geometry">
            <mxPoint x="80" y="110.02000000000001" as="sourcePoint" />
            <Array as="points">
              <mxPoint x="120" y="110" />
              <mxPoint x="120" y="130" />
            </Array>
            <mxPoint x="66" y="130.0085057471265" as="targetPoint" />
          </mxGeometry>
        </mxCell>
        <mxCell id="j11c0CV930gJWpKAAKMR-17" value="" style="html=1;points=[[0,0,0,0,5],[0,1,0,0,-5],[1,0,0,0,5],[1,1,0,0,-5]];perimeter=orthogonalPerimeter;outlineConnect=0;targetShapes=umlLifeline;portConstraint=eastwest;newEdgeStyle={&quot;curved&quot;:0,&quot;rounded&quot;:0};" vertex="1" parent="j11c0CV930gJWpKAAKMR-14">
          <mxGeometry x="46" y="61" width="10" height="249" as="geometry" />
        </mxCell>
        <mxCell id="j11c0CV930gJWpKAAKMR-18" value="" style="html=1;points=[[0,0,0,0,5],[0,1,0,0,-5],[1,0,0,0,5],[1,1,0,0,-5]];perimeter=orthogonalPerimeter;outlineConnect=0;targetShapes=umlLifeline;portConstraint=eastwest;newEdgeStyle={&quot;curved&quot;:0,&quot;rounded&quot;:0};" vertex="1" parent="j11c0CV930gJWpKAAKMR-14">
          <mxGeometry x="56" y="210" width="10" height="40" as="geometry" />
        </mxCell>
        <mxCell id="j11c0CV930gJWpKAAKMR-19" value="getBalanceByCpf()" style="html=1;align=left;spacingLeft=2;endArrow=block;rounded=0;edgeStyle=orthogonalEdgeStyle;curved=0;rounded=0;" edge="1" parent="j11c0CV930gJWpKAAKMR-14" target="j11c0CV930gJWpKAAKMR-18">
          <mxGeometry relative="1" as="geometry">
            <mxPoint x="56" y="200.01" as="sourcePoint" />
            <Array as="points">
              <mxPoint x="86" y="200" />
              <mxPoint x="86" y="230" />
            </Array>
            <mxPoint x="70" y="230" as="targetPoint" />
          </mxGeometry>
        </mxCell>
        <mxCell id="j11c0CV930gJWpKAAKMR-20" value="removeCoins()" style="html=1;verticalAlign=bottom;endArrow=block;curved=0;rounded=0;" edge="1" parent="1">
          <mxGeometry width="80" relative="1" as="geometry">
            <mxPoint x="130" y="120" as="sourcePoint" />
            <mxPoint x="210" y="120" as="targetPoint" />
          </mxGeometry>
        </mxCell>
        <mxCell id="j11c0CV930gJWpKAAKMR-21" value=":userModel" style="shape=umlLifeline;perimeter=lifelinePerimeter;whiteSpace=wrap;html=1;container=1;dropTarget=0;collapsible=0;recursiveResize=0;outlineConnect=0;portConstraint=eastwest;newEdgeStyle={&quot;curved&quot;:0,&quot;rounded&quot;:0};" vertex="1" parent="1">
          <mxGeometry x="560" y="40" width="100" height="370" as="geometry" />
        </mxCell>
        <mxCell id="j11c0CV930gJWpKAAKMR-22" value="" style="html=1;points=[[0,0,0,0,5],[0,1,0,0,-5],[1,0,0,0,5],[1,1,0,0,-5]];perimeter=orthogonalPerimeter;outlineConnect=0;targetShapes=umlLifeline;portConstraint=eastwest;newEdgeStyle={&quot;curved&quot;:0,&quot;rounded&quot;:0};" vertex="1" parent="j11c0CV930gJWpKAAKMR-21">
          <mxGeometry x="46" y="250" width="10" height="60" as="geometry" />
        </mxCell>
        <mxCell id="j11c0CV930gJWpKAAKMR-23" value="createNewTransaction()" style="html=1;verticalAlign=bottom;endArrow=block;curved=0;rounded=0;" edge="1" parent="1" target="j11c0CV930gJWpKAAKMR-21">
          <mxGeometry width="80" relative="1" as="geometry">
            <mxPoint x="210" y="340" as="sourcePoint" />
            <mxPoint x="290" y="340" as="targetPoint" />
          </mxGeometry>
        </mxCell>
      </root>
    </mxGraphModel>
  </diagram>
</mxfile>
